<svg    xmlns="http://www.w3.org/2000/svg"    xmlns:xlink="http://www.w3.org/1999/xlink"    version="1.1" width="114" height="38"    preserveAspectRatio="xMidYMid meet"    viewBox="0 0 114 38"><style>* {  -webkit-font-smoothing: antialiased;  text-rendering: optimizeLegibility;  word-wrap: break-word;}.blocklyPath {  stroke-width: 1px;}.blocklyText {  fill: rgb(255, 255, 255);  font-family: "Chalet", "Arial", sans-serif;  font-size: 12pt;  font-weight: 700;}.blocklyDropdownText {  fill: rgb(255, 255, 255) !important;}.blocklyNonEditableText > text, .blocklyEditableText > text {  fill: rgb(87, 94, 117);}.scratchCommentForeignObject {  background-color: #fff9d9;}.scratchCommentTextarea {  color: #a9983e;  background-color: #fff9d9;   width: 100%;  height: 100%;  padding: 12px;  box-sizing: border-box;}.scratchCommentText {  font-size: 12pt;  fill: #fff9d9;  font-family: "Chalet", "Arial", sans-serif; }.scratchCommentBody {  background-color: #fff9d9; }.scratchCommentTopBar {  fill: #fff2ae;  fill-opacity: 0.1}.scratchCommentRect {  fill: #fff2ae; }.scratchWorkspaceCommentBorder {  stroke: #fff2ae; }.scratchCommentTopBar ~ use, .scratchCommentTopBar ~ image {  opacity: 0.4; }.scratchCommentTarget {  display: none;}.scratchCommentResizeSE, .scratchCommentResizeSW {  fill: transparent;}.blocklyResizeLine {  stroke: #888;  stroke-width: 1;}</style><g xmlns="http://www.w3.org/2000/svg" class="blocklyWorkspace" transform="translate(-155,3.5762786865234375e-7)"><g class="blocklyBlockCanvas" transform="translate(128.675,9.450000000000001) scale(0.675)"><g data-id="lS6(n+0L8}g2q:piCSo*" class="blocklyDraggable" data-shapes="stack" data-category="control" transform="translate(39,-14)"><path class="blocklyPath blocklyBlockBackground" stroke="#C18401" fill="#FFB515" fill-opacity="1" d="m 0,4 A 4,4 0 0,1 4,0 H 12 c 2,0 3,1 4,2 l 4,4 c 1,1 2,2 4,2 h 12 c 2,0 3,-1 4,-2 l 4,-4 c 1,-1 2,-2 4,-2 H 163.7037010192871 a 4,4 0 0,1 4,4 v 40  a 4,4 0 0,1 -4,4 H 48   c -2,0 -3,1 -4,2 l -4,4 c -1,1 -2,2 -4,2 h -12 c -2,0 -3,-1 -4,-2 l -4,-4 c -1,-1 -2,-2 -4,-2 H 4 a 4,4 0 0,1 -4,-4 z"/><g data-id="L+Lv~ptG[C8jA2pI9L?n" data-argument-type="text number" data-shapes="argument round" transform="translate(48,8)"><path class="blocklyPath blocklyBlockBackground" stroke="#C18401" fill="#FFFFFF" fill-opacity="1" d="m 0,0 m 16,0 H 24 a 16 16 0 0 1 0 32 H 16 a 16 16 0 0 1 0 -32 z"/><g class="blocklyEditableText" transform="translate(8, 0) " style="cursor: text;"><text class="blocklyText" x="12" y="18" dominant-baseline="middle" dy="0" text-anchor="middle">2</text></g></g><text class="blocklyText" y="2" text-anchor="middle" dominant-baseline="middle" dy="0" x="15.55555534362793" transform="translate(8, 24) ">wait</text><path class="blocklyPath" style="visibility: hidden" d="" fill="#C18401"/><text class="blocklyText" y="2" text-anchor="middle" dominant-baseline="middle" dy="0" x="31.851850509643555" transform="translate(96, 24) ">seconds</text></g></g><g class="blocklyBubbleCanvas" transform="translate(128.675,9.450000000000001) scale(0.675)"/><defs/></g></svg>